<?xml version="1.0" encoding="UTF-8" standalone="no"?>
<!-- Created with Inkscape (http://www.inkscape.org/) -->

<svg
   xmlns:dc="http://purl.org/dc/elements/1.1/"
   xmlns:cc="http://creativecommons.org/ns#"
   xmlns:rdf="http://www.w3.org/1999/02/22-rdf-syntax-ns#"
   xmlns:svg="http://www.w3.org/2000/svg"
   xmlns="http://www.w3.org/2000/svg"
   xmlns:sodipodi="http://sodipodi.sourceforge.net/DTD/sodipodi-0.dtd"
   xmlns:inkscape="http://www.inkscape.org/namespaces/inkscape"
   width="85.145302mm"
   height="21.353775mm"
   viewBox="0 0 85.145302 21.353775"
   version="1.1"
   id="svg1041"
   inkscape:version="0.92.2 (5c3e80d, 2017-08-06)"
   sodipodi:docname="PediloYA-LogoNaranja.svg">
  <defs
     id="defs1035" />
  <sodipodi:namedview
     id="base"
     pagecolor="#ffffff"
     bordercolor="#666666"
     borderopacity="1.0"
     inkscape:pageopacity="0.0"
     inkscape:pageshadow="2"
     inkscape:zoom="2.8"
     inkscape:cx="153.76481"
     inkscape:cy="29.243953"
     inkscape:document-units="mm"
     inkscape:current-layer="text5391"
     showgrid="false"
     fit-margin-top="0"
     fit-margin-left="0"
     fit-margin-right="0"
     fit-margin-bottom="0"
     inkscape:window-width="1280"
     inkscape:window-height="699"
     inkscape:window-x="-8"
     inkscape:window-y="-8"
     inkscape:window-maximized="1" />
  <metadata
     id="metadata1038">
    <rdf:RDF>
      <cc:Work
         rdf:about="">
        <dc:format>image/svg+xml</dc:format>
        <dc:type
           rdf:resource="http://purl.org/dc/dcmitype/StillImage" />
        <dc:title></dc:title>
      </cc:Work>
    </rdf:RDF>
  </metadata>
  <g
     inkscape:label="Layer 1"
     inkscape:groupmode="layer"
     id="layer1"
     transform="translate(-60.992826,-132.10883)">
    <path
       inkscape:connector-curvature="0"
       d="m 112.30312,146.09138 c -1.64956,-0.44201 -2.62963,-2.13949 -2.18762,-3.78904 0.44199,-1.64956 2.13951,-2.62961 3.78906,-2.18761 1.64956,0.44198 2.62962,2.13949 2.18762,3.78904 -0.442,1.64957 -2.13951,2.62961 -3.78906,2.18761 z m 2.2954,-8.56655 c -3.08397,-0.82635 -6.24657,0.99958 -7.07291,4.08355 -1.12101,4.18365 2.8024,11.85422 2.8024,11.85422 0,0 7.23306,-4.68121 8.35406,-8.86486 0.82635,-3.08397 -0.9996,-6.24657 -4.08355,-7.07291 z"
       style="fill:#d45500;stroke-width:1.23749983"
       id="path5383" />
    <g
       aria-label="PediloYA"
       style="font-style:italic;font-variant:normal;font-weight:bold;font-stretch:normal;font-size:22.57777786px;line-height:125%;font-family:Calibri;-inkscape-font-specification:'Calibri, Bold Italic';font-variant-ligatures:normal;font-variant-caps:normal;font-variant-numeric:normal;font-feature-settings:normal;text-align:start;letter-spacing:0px;word-spacing:0px;writing-mode:lr-tb;text-anchor:start;fill:#d45500;fill-opacity:1;stroke:none;stroke-width:0.26458332px;stroke-linecap:butt;stroke-linejoin:miter;stroke-opacity:1"
       id="text5391">
      <path
         d="m 72.746114,138.13595 q 0,0.61736 -0.143316,1.28984 -0.132292,0.67248 -0.440972,1.32292 -0.308681,0.63941 -0.804775,1.22369 -0.485069,0.57327 -1.201649,1.02526 -0.705556,0.44098 -1.642622,0.70556 -0.937066,0.25356 -2.204861,0.25356 h -1.488281 l -0.915017,4.56406 q -0.02205,0.11024 -0.110243,0.19844 -0.08819,0.0882 -0.275608,0.14332 -0.187413,0.0551 -0.474045,0.0772 -0.286632,0.0331 -0.705556,0.0331 -0.407899,0 -0.683507,-0.0331 -0.264583,-0.0221 -0.418923,-0.0772 -0.154341,-0.0551 -0.209462,-0.1323 -0.05512,-0.0882 -0.02205,-0.20946 l 2.568663,-12.84331 q 0.09922,-0.51815 0.429948,-0.77171 0.33073,-0.26458 0.815799,-0.26458 h 3.119878 q 0.573264,0 1.025261,0.0441 0.451996,0.0331 0.892969,0.12127 0.672482,0.13229 1.201649,0.40789 0.540191,0.27561 0.915017,0.69454 0.374827,0.4079 0.573264,0.97014 0.198438,0.55121 0.198438,1.25677 z m -3.053733,0.33073 q 0,-0.52917 -0.253559,-0.91502 -0.253559,-0.38585 -0.782726,-0.54019 -0.23151,-0.0772 -0.518142,-0.0992 -0.286632,-0.0331 -0.63941,-0.0331 h -1.278819 l -0.94809,4.83967 h 1.322916 q 0.628386,0 1.069358,-0.14332 0.451996,-0.15434 0.782726,-0.39688 0.341753,-0.24253 0.573263,-0.57326 0.242535,-0.33073 0.385851,-0.69453 0.15434,-0.3638 0.220486,-0.72761 0.06615,-0.37482 0.06615,-0.71657 z"
         style="font-style:italic;font-variant:normal;font-weight:bold;font-stretch:normal;font-size:22.57777786px;font-family:Calibri;-inkscape-font-specification:'Calibri, Bold Italic';font-variant-ligatures:normal;font-variant-caps:normal;font-variant-numeric:normal;font-feature-settings:normal;text-align:start;writing-mode:lr-tb;text-anchor:start;fill:#d45500;stroke-width:0.26458332px"
         id="path835" />
      <path
         d="m 82.767208,140.85895 q 0,0.79375 -0.363802,1.43316 -0.352778,0.62838 -1.113455,1.09141 -0.749653,0.45199 -1.918229,0.69453 -1.157552,0.24253 -2.767101,0.24253 h -1.014236 q -0.0441,0.25356 -0.06615,0.50712 -0.02205,0.24253 -0.02205,0.452 0,0.89296 0.463021,1.34496 0.463021,0.452 1.488282,0.452 0.727604,0 1.300868,-0.0992 0.584288,-0.11024 1.014236,-0.23151 0.440972,-0.13229 0.727604,-0.23151 0.286632,-0.11024 0.418924,-0.11024 0.132291,0 0.187413,0.0772 0.05512,0.0772 0.05512,0.24253 0,0.18741 -0.03307,0.42995 -0.03307,0.24253 -0.09922,0.48507 -0.05512,0.23151 -0.154341,0.44097 -0.08819,0.20946 -0.209461,0.3197 -0.132292,0.1323 -0.48507,0.26459 -0.352778,0.13229 -0.848871,0.24253 -0.496094,0.11025 -1.113455,0.17639 -0.617361,0.0772 -1.256771,0.0772 -1.058334,0 -1.852084,-0.22048 -0.782725,-0.22049 -1.311892,-0.67249 -0.529167,-0.45199 -0.79375,-1.14653 -0.264583,-0.70555 -0.264583,-1.66467 0,-0.73862 0.132291,-1.57647 0.143316,-0.84887 0.451997,-1.66467 0.308681,-0.82682 0.79375,-1.57648 0.485069,-0.74965 1.168576,-1.31189 0.694532,-0.57326 1.598525,-0.91502 0.903993,-0.34175 2.061545,-0.34175 1.003212,0 1.719792,0.24253 0.727604,0.23152 1.190625,0.62839 0.46302,0.38585 0.683506,0.89297 0.231511,0.49609 0.231511,1.02526 z m -2.723004,0.20946 q 0,-0.44097 -0.352777,-0.7276 -0.341754,-0.29766 -1.003212,-0.29766 -0.551215,0 -0.992188,0.19844 -0.429948,0.19844 -0.760677,0.54019 -0.330729,0.33073 -0.573264,0.79375 -0.23151,0.452 -0.374826,0.97014 h 0.926042 q 0.881944,0 1.477257,-0.11024 0.595312,-0.12127 0.959114,-0.31971 0.363802,-0.19844 0.529167,-0.46302 0.165364,-0.27561 0.165364,-0.58429 z"
         style="font-style:italic;font-variant:normal;font-weight:bold;font-stretch:normal;font-size:22.57777786px;font-family:Calibri;-inkscape-font-specification:'Calibri, Bold Italic';font-variant-ligatures:normal;font-variant-caps:normal;font-variant-numeric:normal;font-feature-settings:normal;text-align:start;writing-mode:lr-tb;text-anchor:start;fill:#d45500;stroke-width:0.26458332px"
         id="path837" />
      <path
         d="m 92.777277,148.54289 q -0.0441,0.23151 -0.352778,0.33073 -0.297656,0.0992 -0.970139,0.0992 -0.341754,0 -0.56224,-0.022 -0.209462,-0.0221 -0.341753,-0.0662 -0.132292,-0.0551 -0.176389,-0.13229 -0.03307,-0.0882 -0.01102,-0.20946 l 0.297656,-1.57648 q -0.165365,0.35278 -0.529167,0.74966 -0.363802,0.38585 -0.859896,0.71658 -0.496093,0.3197 -1.10243,0.51814 -0.595313,0.20946 -1.234722,0.20946 -0.628386,0 -1.102431,-0.16536 -0.463021,-0.15434 -0.804774,-0.42995 -0.330729,-0.27561 -0.551216,-0.65043 -0.220486,-0.37483 -0.352777,-0.79376 -0.132292,-0.41892 -0.187414,-0.85989 -0.05512,-0.452 -0.05512,-0.88195 0,-0.71658 0.132292,-1.53237 0.132291,-0.82683 0.407899,-1.6316 0.286632,-0.8158 0.71658,-1.56545 0.429948,-0.74966 1.02526,-1.32292 0.606337,-0.57326 1.378038,-0.91502 0.782726,-0.34175 1.752865,-0.34175 0.429948,0 0.815799,0.0992 0.396875,0.0882 0.716579,0.25356 0.33073,0.15434 0.595313,0.37482 0.264583,0.22049 0.451997,0.46303 l 1.047309,-5.19245 q 0.02205,-0.11025 0.09922,-0.19844 0.07717,-0.0882 0.242535,-0.14332 0.176389,-0.0661 0.440972,-0.0992 0.275608,-0.0331 0.683507,-0.0331 0.407899,0 0.661459,0.0331 0.264583,0.0331 0.407899,0.0992 0.143316,0.0551 0.187413,0.14332 0.0441,0.0882 0.02205,0.19844 z m -1.378039,-6.89019 q -0.38585,-0.60634 -0.859895,-0.91502 -0.463021,-0.30868 -1.080382,-0.30868 -0.451997,0 -0.837848,0.22049 -0.374826,0.20946 -0.683507,0.57326 -0.297656,0.35278 -0.529166,0.83785 -0.220486,0.47404 -0.374827,1.00321 -0.143316,0.52917 -0.220486,1.05833 -0.07717,0.52917 -0.07717,1.00322 0,0.83784 0.275608,1.26779 0.275607,0.41892 0.87092,0.41892 0.485069,0 0.992187,-0.28663 0.507118,-0.29765 0.948091,-0.78272 0.440972,-0.4961 0.771701,-1.15756 0.341754,-0.67248 0.496094,-1.43316 z"
         style="font-style:italic;font-variant:normal;font-weight:bold;font-stretch:normal;font-size:22.57777786px;font-family:Calibri;-inkscape-font-specification:'Calibri, Bold Italic';font-variant-ligatures:normal;font-variant-caps:normal;font-variant-numeric:normal;font-feature-settings:normal;text-align:start;writing-mode:lr-tb;text-anchor:start;fill:#d45500;stroke-width:0.26458332px"
         id="path839" />
      <path
         d="m 101.15575,135.39089 q -0.0772,0.4079 -0.20946,0.69454 -0.13229,0.2756 -0.35278,0.45199 -0.22049,0.16537 -0.54019,0.24254 -0.319707,0.0661 -0.793752,0.0661 -0.463021,0 -0.760677,-0.0661 -0.286632,-0.0772 -0.440972,-0.24254 -0.143316,-0.17639 -0.165365,-0.45199 -0.02205,-0.28664 0.06615,-0.69454 0.07717,-0.39687 0.209462,-0.67248 0.132292,-0.27561 0.352778,-0.452 0.220486,-0.17638 0.540191,-0.25355 0.319705,-0.0772 0.79375,-0.0772 0.463019,0 0.749649,0.0772 0.29766,0.0772 0.44098,0.25355 0.15434,0.17639 0.16536,0.452 0.022,0.27561 -0.0551,0.67248 z m -2.844272,13.14098 q -0.02205,0.11024 -0.110243,0.19843 -0.07717,0.0772 -0.253559,0.1323 -0.165365,0.0551 -0.440972,0.0772 -0.275608,0.0331 -0.672483,0.0331 -0.407899,0 -0.672483,-0.0331 -0.253559,-0.0221 -0.407899,-0.0772 -0.143316,-0.0551 -0.187413,-0.1323 -0.0441,-0.0882 -0.02205,-0.19843 l 1.951302,-9.81164 q 0.02205,-0.11024 0.09922,-0.18741 0.08819,-0.0882 0.253559,-0.14332 0.176389,-0.0661 0.440972,-0.0992 0.275608,-0.0331 0.683507,-0.0331 0.4079,0 0.661459,0.0331 0.264583,0.0331 0.407895,0.0992 0.15434,0.0551 0.19844,0.14332 0.0441,0.0772 0.0221,0.18741 z"
         style="font-style:italic;font-variant:normal;font-weight:bold;font-stretch:normal;font-size:22.57777786px;font-family:Calibri;-inkscape-font-specification:'Calibri, Bold Italic';font-variant-ligatures:normal;font-variant-caps:normal;font-variant-numeric:normal;font-feature-settings:normal;text-align:start;writing-mode:lr-tb;text-anchor:start;fill:#d45500;stroke-width:0.26458332px"
         id="path841" />
      <path
         d="m 103.86773,148.53187 q -0.022,0.11024 -0.11024,0.19843 -0.0772,0.0772 -0.24254,0.1323 -0.16536,0.0551 -0.44097,0.0772 -0.27561,0.0331 -0.67248,0.0331 -0.41893,0 -0.68351,-0.0331 -0.25356,-0.0221 -0.39688,-0.0772 -0.14331,-0.0551 -0.19843,-0.1323 -0.0441,-0.0882 -0.0221,-0.19843 l 2.89939,-14.49697 q 0.022,-0.11024 0.0992,-0.19843 0.0772,-0.0882 0.25356,-0.14332 0.17639,-0.0661 0.44097,-0.0992 0.27561,-0.0331 0.68351,-0.0331 0.4079,0 0.66146,0.0331 0.26458,0.0331 0.4079,0.0992 0.14331,0.0551 0.18741,0.14332 0.0441,0.0882 0.0221,0.19843 z"
         style="font-style:italic;font-variant:normal;font-weight:bold;font-stretch:normal;font-size:22.57777786px;font-family:Calibri;-inkscape-font-specification:'Calibri, Bold Italic';font-variant-ligatures:normal;font-variant-caps:normal;font-variant-numeric:normal;font-feature-settings:normal;text-align:start;writing-mode:lr-tb;text-anchor:start;fill:#d45500;stroke-width:0.26458332px"
         id="path843" />
      <path
         d="m 131.16554,132.67327 q 1.10631,0.76764 1.10631,1.49013 0,0.42898 -0.51929,1.19663 l -4.8768,7.29262 v 4.31235 q 0,0.51929 -0.0452,0.79023 -0.0226,0.24835 -0.2032,0.58702 -0.18062,0.33866 -0.6096,0.47413 -0.42898,0.13547 -1.15146,0.13547 -0.72249,0 -1.15147,-0.13547 -0.42898,-0.13547 -0.6096,-0.47413 -0.18062,-0.36125 -0.22578,-0.6096 -0.0226,-0.27094 -0.0226,-0.8128 v -4.2672 l -4.8768,-7.29262 q -0.51929,-0.76765 -0.51929,-1.19663 0,-0.72249 0.99343,-1.37724 0.99342,-0.67733 1.4224,-0.67733 0.42897,0 0.67733,0.18062 0.38382,0.24835 0.8128,0.92569 l 3.49956,5.59929 3.49955,-5.59929 q 0.42898,-0.67734 0.74507,-0.88054 0.31609,-0.22577 0.72249,-0.22577 0.42897,0 1.33209,0.56444 z"
         style="font-style:normal;font-variant:normal;font-weight:normal;font-stretch:normal;font-size:22.57777786px;font-family:'Fredoka One';-inkscape-font-specification:'Fredoka One';font-variant-ligatures:normal;font-variant-caps:normal;font-variant-numeric:normal;font-feature-settings:normal;text-align:start;writing-mode:lr-tb;text-anchor:start;fill:#d45500;stroke-width:0.26458332px"
         id="path847" />
      <path
         d="m 139.6583,133.53123 6.096,12.5984 q 0.38383,0.76764 0.38383,1.15146 0,0.8128 -1.30952,1.46756 -0.76764,0.38382 -1.2192,0.38382 -0.42897,0 -0.72248,-0.2032 -0.27094,-0.2032 -0.4064,-0.42898 -0.11289,-0.22578 -0.33867,-0.67733 l -1.17405,-2.4384 h -6.25404 l -1.17404,2.4384 q -0.22578,0.45155 -0.36125,0.65475 -0.11289,0.2032 -0.4064,0.42898 -0.27093,0.2032 -0.72249,0.2032 -0.42898,0 -1.19662,-0.38382 -1.30951,-0.63218 -1.30951,-1.44498 0,-0.38382 0.38382,-1.15146 l 6.096,-12.62098 q 0.24836,-0.51929 0.74507,-0.83538 0.51929,-0.31609 1.08373,-0.31609 1.2192,0 1.80622,1.17405 z m -1.8288,5.41866 -1.49013,3.09316 h 3.00284 z"
         style="font-style:normal;font-variant:normal;font-weight:normal;font-stretch:normal;font-size:22.57777786px;font-family:'Fredoka One';-inkscape-font-specification:'Fredoka One';font-variant-ligatures:normal;font-variant-caps:normal;font-variant-numeric:normal;font-feature-settings:normal;text-align:start;writing-mode:lr-tb;text-anchor:start;fill:#d45500;stroke-width:0.26458332px"
         id="path849" />
    </g>
  </g>
</svg>
