<?xml version="1.0" encoding="UTF-8" standalone="no"?>
<!-- Created with Inkscape (http://www.inkscape.org/) -->

<svg
   xmlns:dc="http://purl.org/dc/elements/1.1/"
   xmlns:cc="http://creativecommons.org/ns#"
   xmlns:rdf="http://www.w3.org/1999/02/22-rdf-syntax-ns#"
   xmlns:svg="http://www.w3.org/2000/svg"
   xmlns="http://www.w3.org/2000/svg"
   xmlns:sodipodi="http://sodipodi.sourceforge.net/DTD/sodipodi-0.dtd"
   xmlns:inkscape="http://www.inkscape.org/namespaces/inkscape"
   width="40mm"
   height="40mm"
   viewBox="0 0 40 40.000001"
   version="1.1"
   id="svg1041"
   inkscape:version="0.92.2 (5c3e80d, 2017-08-06)"
   sodipodi:docname="YA-IconoNaranja.svg">
  <defs
     id="defs1035" />
  <sodipodi:namedview
     id="base"
     pagecolor="#ffffff"
     bordercolor="#666666"
     borderopacity="1.0"
     inkscape:pageopacity="0.0"
     inkscape:pageshadow="2"
     inkscape:zoom="2.8"
     inkscape:cx="11.296685"
     inkscape:cy="88.91858"
     inkscape:document-units="mm"
     inkscape:current-layer="text5391"
     showgrid="false"
     fit-margin-top="0"
     fit-margin-left="0"
     fit-margin-right="0"
     fit-margin-bottom="0"
     inkscape:window-width="1280"
     inkscape:window-height="699"
     inkscape:window-x="-8"
     inkscape:window-y="-8"
     inkscape:window-maximized="1" />
  <metadata
     id="metadata1038">
    <rdf:RDF>
      <cc:Work
         rdf:about="">
        <dc:format>image/svg+xml</dc:format>
        <dc:type
           rdf:resource="http://purl.org/dc/dcmitype/StillImage" />
        <dc:title></dc:title>
      </cc:Work>
    </rdf:RDF>
  </metadata>
  <g
     inkscape:label="Layer 1"
     inkscape:groupmode="layer"
     id="layer1"
     transform="translate(-112.46076,-114.13247)">
    <g
       aria-label="PediloYA"
       style="font-style:italic;font-variant:normal;font-weight:bold;font-stretch:normal;font-size:22.57777786px;line-height:125%;font-family:Calibri;-inkscape-font-specification:'Calibri, Bold Italic';font-variant-ligatures:normal;font-variant-caps:normal;font-variant-numeric:normal;font-feature-settings:normal;text-align:start;letter-spacing:0px;word-spacing:0px;writing-mode:lr-tb;text-anchor:start;fill:#d45500;fill-opacity:1;stroke:none;stroke-width:0.26458332px;stroke-linecap:butt;stroke-linejoin:miter;stroke-opacity:1"
       id="text5391">
      <rect
         style="opacity:1;fill:#d45500;fill-opacity:1;fill-rule:nonzero;stroke:none;stroke-width:1.63743401;stroke-linecap:round;stroke-linejoin:round;stroke-miterlimit:4;stroke-dasharray:none;stroke-opacity:1"
         id="rect827"
         width="40"
         height="40"
         x="112.46076"
         y="114.13247"
         rx="6.6666665" />
      <g
         id="g825"
         transform="translate(0.661315,-6.48818)"
         style="fill:#ffffff">
        <path
           inkscape:connector-curvature="0"
           id="path847"
           style="font-style:normal;font-variant:normal;font-weight:normal;font-stretch:normal;font-size:22.57777786px;font-family:'Fredoka One';-inkscape-font-specification:'Fredoka One';font-variant-ligatures:normal;font-variant-caps:normal;font-variant-numeric:normal;font-feature-settings:normal;text-align:start;writing-mode:lr-tb;text-anchor:start;fill:#ffffff;stroke-width:0.26458332px"
           d="m 131.16554,132.67327 q 1.10631,0.76764 1.10631,1.49013 0,0.42898 -0.51929,1.19663 l -4.8768,7.29262 v 4.31235 q 0,0.51929 -0.0452,0.79023 -0.0226,0.24835 -0.2032,0.58702 -0.18062,0.33866 -0.6096,0.47413 -0.42898,0.13547 -1.15146,0.13547 -0.72249,0 -1.15147,-0.13547 -0.42898,-0.13547 -0.6096,-0.47413 -0.18062,-0.36125 -0.22578,-0.6096 -0.0226,-0.27094 -0.0226,-0.8128 v -4.2672 l -4.8768,-7.29262 q -0.51929,-0.76765 -0.51929,-1.19663 0,-0.72249 0.99343,-1.37724 0.99342,-0.67733 1.4224,-0.67733 0.42897,0 0.67733,0.18062 0.38382,0.24835 0.8128,0.92569 l 3.49956,5.59929 3.49955,-5.59929 q 0.42898,-0.67734 0.74507,-0.88054 0.31609,-0.22577 0.72249,-0.22577 0.42897,0 1.33209,0.56444 z" />
        <path
           inkscape:connector-curvature="0"
           id="path849"
           style="font-style:normal;font-variant:normal;font-weight:normal;font-stretch:normal;font-size:22.57777786px;font-family:'Fredoka One';-inkscape-font-specification:'Fredoka One';font-variant-ligatures:normal;font-variant-caps:normal;font-variant-numeric:normal;font-feature-settings:normal;text-align:start;writing-mode:lr-tb;text-anchor:start;fill:#ffffff;stroke-width:0.26458332px"
           d="m 139.6583,133.53123 6.096,12.5984 q 0.38383,0.76764 0.38383,1.15146 0,0.8128 -1.30952,1.46756 -0.76764,0.38382 -1.2192,0.38382 -0.42897,0 -0.72248,-0.2032 -0.27094,-0.2032 -0.4064,-0.42898 -0.11289,-0.22578 -0.33867,-0.67733 l -1.17405,-2.4384 h -6.25404 l -1.17404,2.4384 q -0.22578,0.45155 -0.36125,0.65475 -0.11289,0.2032 -0.4064,0.42898 -0.27093,0.2032 -0.72249,0.2032 -0.42898,0 -1.19662,-0.38382 -1.30951,-0.63218 -1.30951,-1.44498 0,-0.38382 0.38382,-1.15146 l 6.096,-12.62098 q 0.24836,-0.51929 0.74507,-0.83538 0.51929,-0.31609 1.08373,-0.31609 1.2192,0 1.80622,1.17405 z m -1.8288,5.41866 -1.49013,3.09316 h 3.00284 z" />
      </g>
    </g>
  </g>
</svg>
