<?xml version="1.0" encoding="utf-8"?>
<!-- Svg Vector Icons : http://www.onlinewebfonts.com/icon -->
<!DOCTYPE svg PUBLIC "-//W3C//DTD SVG 1.1//EN" "http://www.w3.org/Graphics/SVG/1.1/DTD/svg11.dtd">
<svg version="1.1" xmlns="http://www.w3.org/2000/svg" xmlns:xlink="http://www.w3.org/1999/xlink" x="0px" y="0px" viewBox="0 0 1000 1000" enable-background="new 0 0 1000 1000" xml:space="preserve">
<metadata> Svg Vector Icons : http://www.onlinewebfonts.com/icon </metadata>
<g><g><g><path d="M500,305.7c-43.5,0-78.9,35.4-78.9,78.9c0,43.5,35.4,78.9,78.9,78.9c43.5,0,78.9-35.4,78.9-78.9C578.9,341.1,543.6,305.7,500,305.7z"/><path d="M500,10c-190.3,0-345.2,154.9-345.2,345.2c0,176.7,281.9,565.2,314,608.9l11.8,16.1c4.5,6.2,11.7,9.8,19.4,9.8c7.6,0,14.9-3.7,19.4-9.8l11.8-16.1c32.2-43.7,314-432.2,314-608.9C845.2,164.9,690.4,10,500,10z M500,526.3c-78.1,0-141.7-63.6-141.7-141.7c0-78.2,63.6-141.7,141.7-141.7c78.1,0,141.7,63.6,141.7,141.7S578.1,526.3,500,526.3z"/></g></g><g></g><g></g><g></g><g></g><g></g><g></g><g></g><g></g><g></g><g></g><g></g><g></g><g></g><g></g><g></g></g>
</svg>